<mxfile host="app.diagrams.net" agent="Mozilla/5.0 (Windows NT 10.0; Win64; x64) AppleWebKit/537.36 (KHTML, like Gecko) Chrome/121.0.0.0 Safari/537.36" version="24.7.4">
  <diagram name="第 1 页" id="UI4DdZ-nfba_N7edg6g0">
    <mxGraphModel dx="1674" dy="738" grid="1" gridSize="10" guides="1" tooltips="1" connect="1" arrows="1" fold="1" page="1" pageScale="1" pageWidth="1169" pageHeight="827" math="0" shadow="0">
      <root>
        <mxCell id="0" />
        <mxCell id="1" parent="0" />
        <mxCell id="0gLnGoI6NImy_GsO39rS-5" value="rule" style="shape=umlLifeline;perimeter=lifelinePerimeter;whiteSpace=wrap;html=1;container=1;dropTarget=0;collapsible=0;recursiveResize=0;outlineConnect=0;portConstraint=eastwest;newEdgeStyle={&quot;edgeStyle&quot;:&quot;elbowEdgeStyle&quot;,&quot;elbow&quot;:&quot;vertical&quot;,&quot;curved&quot;:0,&quot;rounded&quot;:0};" vertex="1" parent="1">
          <mxGeometry x="240" y="70" width="100" height="300" as="geometry" />
        </mxCell>
        <mxCell id="0gLnGoI6NImy_GsO39rS-6" value="Lifeline2" style="shape=umlLifeline;perimeter=lifelinePerimeter;whiteSpace=wrap;html=1;container=1;dropTarget=0;collapsible=0;recursiveResize=0;outlineConnect=0;portConstraint=eastwest;newEdgeStyle={&quot;edgeStyle&quot;:&quot;elbowEdgeStyle&quot;,&quot;elbow&quot;:&quot;vertical&quot;,&quot;curved&quot;:0,&quot;rounded&quot;:0};" vertex="1" parent="1">
          <mxGeometry x="590" y="230" width="100" height="300" as="geometry" />
        </mxCell>
        <mxCell id="0gLnGoI6NImy_GsO39rS-33" style="edgeStyle=elbowEdgeStyle;rounded=0;orthogonalLoop=1;jettySize=auto;html=1;elbow=vertical;curved=0;" edge="1" parent="1" source="0gLnGoI6NImy_GsO39rS-7" target="0gLnGoI6NImy_GsO39rS-5">
          <mxGeometry relative="1" as="geometry" />
        </mxCell>
        <mxCell id="0gLnGoI6NImy_GsO39rS-7" value="socre" style="shape=umlLifeline;perimeter=lifelinePerimeter;whiteSpace=wrap;html=1;container=1;dropTarget=0;collapsible=0;recursiveResize=0;outlineConnect=0;portConstraint=eastwest;newEdgeStyle={&quot;edgeStyle&quot;:&quot;elbowEdgeStyle&quot;,&quot;elbow&quot;:&quot;vertical&quot;,&quot;curved&quot;:0,&quot;rounded&quot;:0};points=[];" vertex="1" parent="1">
          <mxGeometry x="50" y="65" width="100" height="300" as="geometry" />
        </mxCell>
        <mxCell id="0gLnGoI6NImy_GsO39rS-8" value="Lifeline2" style="shape=umlLifeline;perimeter=lifelinePerimeter;whiteSpace=wrap;html=1;container=1;dropTarget=0;collapsible=0;recursiveResize=0;outlineConnect=0;portConstraint=eastwest;newEdgeStyle={&quot;edgeStyle&quot;:&quot;elbowEdgeStyle&quot;,&quot;elbow&quot;:&quot;vertical&quot;,&quot;curved&quot;:0,&quot;rounded&quot;:0};" vertex="1" parent="1">
          <mxGeometry x="400" y="70" width="100" height="300" as="geometry" />
        </mxCell>
        <mxCell id="0gLnGoI6NImy_GsO39rS-9" value="Lifeline2" style="shape=umlLifeline;perimeter=lifelinePerimeter;whiteSpace=wrap;html=1;container=1;dropTarget=0;collapsible=0;recursiveResize=0;outlineConnect=0;portConstraint=eastwest;newEdgeStyle={&quot;edgeStyle&quot;:&quot;elbowEdgeStyle&quot;,&quot;elbow&quot;:&quot;vertical&quot;,&quot;curved&quot;:0,&quot;rounded&quot;:0};" vertex="1" parent="1">
          <mxGeometry x="330" y="430" width="100" height="300" as="geometry" />
        </mxCell>
        <mxCell id="0gLnGoI6NImy_GsO39rS-10" value="" style="html=1;points=[[0,0,0,0,5],[0,1,0,0,-5],[1,0,0,0,5],[1,1,0,0,-5]];perimeter=orthogonalPerimeter;outlineConnect=0;targetShapes=umlLifeline;portConstraint=eastwest;newEdgeStyle={&quot;curved&quot;:0,&quot;rounded&quot;:0};fillColor=#808080;" vertex="1" parent="0gLnGoI6NImy_GsO39rS-9">
          <mxGeometry x="45" y="90" width="10" height="120" as="geometry" />
        </mxCell>
        <mxCell id="0gLnGoI6NImy_GsO39rS-14" value="Action1" style="html=1;rounded=1;absoluteArcSize=1;arcSize=10;whiteSpace=wrap;" vertex="1" parent="1">
          <mxGeometry x="440" y="365" width="100" height="30" as="geometry" />
        </mxCell>
        <mxCell id="0gLnGoI6NImy_GsO39rS-15" value="Action2" style="html=1;rounded=1;absoluteArcSize=1;arcSize=10;whiteSpace=wrap;" vertex="1" parent="1">
          <mxGeometry x="620" y="365" width="100" height="30" as="geometry" />
        </mxCell>
        <mxCell id="0gLnGoI6NImy_GsO39rS-16" value="" style="html=1;" vertex="1" parent="1">
          <mxGeometry x="572" y="360" width="16" height="16" as="geometry" />
        </mxCell>
        <mxCell id="0gLnGoI6NImy_GsO39rS-17" value="" style="html=1;rounded=0;labelBackgroundColor=none;align=left;spacingLeft=5;endArrow=open;endFill=0;" edge="1" source="0gLnGoI6NImy_GsO39rS-14" target="0gLnGoI6NImy_GsO39rS-15" parent="1">
          <mxGeometry relative="1" as="geometry" />
        </mxCell>
        <mxCell id="0gLnGoI6NImy_GsO39rS-18" value="Action1" style="html=1;rounded=1;absoluteArcSize=1;arcSize=10;whiteSpace=wrap;" vertex="1" parent="1">
          <mxGeometry x="440" y="365" width="100" height="30" as="geometry" />
        </mxCell>
        <mxCell id="0gLnGoI6NImy_GsO39rS-19" value="Action2" style="html=1;rounded=1;absoluteArcSize=1;arcSize=10;whiteSpace=wrap;" vertex="1" parent="1">
          <mxGeometry x="620" y="365" width="100" height="30" as="geometry" />
        </mxCell>
        <mxCell id="0gLnGoI6NImy_GsO39rS-20" value="" style="html=1;" vertex="1" parent="1">
          <mxGeometry x="572" y="360" width="16" height="16" as="geometry" />
        </mxCell>
        <mxCell id="0gLnGoI6NImy_GsO39rS-21" value="" style="html=1;rounded=0;labelBackgroundColor=none;align=left;spacingLeft=5;endArrow=open;endFill=0;" edge="1" source="0gLnGoI6NImy_GsO39rS-18" target="0gLnGoI6NImy_GsO39rS-19" parent="1">
          <mxGeometry relative="1" as="geometry" />
        </mxCell>
        <mxCell id="0gLnGoI6NImy_GsO39rS-22" value="Action1" style="html=1;rounded=1;absoluteArcSize=1;arcSize=10;whiteSpace=wrap;" vertex="1" parent="1">
          <mxGeometry x="440" y="365" width="100" height="30" as="geometry" />
        </mxCell>
        <mxCell id="0gLnGoI6NImy_GsO39rS-23" value="Action2" style="html=1;rounded=1;absoluteArcSize=1;arcSize=10;whiteSpace=wrap;" vertex="1" parent="1">
          <mxGeometry x="620" y="365" width="100" height="30" as="geometry" />
        </mxCell>
        <mxCell id="0gLnGoI6NImy_GsO39rS-24" value="" style="html=1;" vertex="1" parent="1">
          <mxGeometry x="572" y="360" width="16" height="16" as="geometry" />
        </mxCell>
        <mxCell id="0gLnGoI6NImy_GsO39rS-25" value="" style="html=1;rounded=0;labelBackgroundColor=none;align=left;spacingLeft=5;endArrow=open;endFill=0;" edge="1" source="0gLnGoI6NImy_GsO39rS-22" target="0gLnGoI6NImy_GsO39rS-23" parent="1">
          <mxGeometry relative="1" as="geometry" />
        </mxCell>
        <mxCell id="0gLnGoI6NImy_GsO39rS-26" value="" style="edgeStyle=none;orthogonalLoop=1;jettySize=auto;html=1;rounded=0;" edge="1" parent="1" target="0gLnGoI6NImy_GsO39rS-9">
          <mxGeometry width="100" relative="1" as="geometry">
            <mxPoint x="210" y="580" as="sourcePoint" />
            <mxPoint x="230" y="570" as="targetPoint" />
            <Array as="points" />
          </mxGeometry>
        </mxCell>
        <mxCell id="0gLnGoI6NImy_GsO39rS-27" value="" style="rounded=0;dashed=0;container=0;collapsible=0;recursiveResize=0;" vertex="1" parent="1">
          <mxGeometry x="480" y="530" width="160" height="160" as="geometry" />
        </mxCell>
        <mxCell id="0gLnGoI6NImy_GsO39rS-28" value="LifeLine1" style="rounded=0;dashed=0;whiteSpace=wrap;html=1;" vertex="1" parent="0gLnGoI6NImy_GsO39rS-27">
          <mxGeometry x="30" y="10" width="100" height="30" as="geometry" />
        </mxCell>
        <mxCell id="0gLnGoI6NImy_GsO39rS-29" value="" style="rounded=0;dashed=0;" vertex="1" parent="0gLnGoI6NImy_GsO39rS-27">
          <mxGeometry x="75" y="60" width="10" height="60" as="geometry" />
        </mxCell>
        <mxCell id="0gLnGoI6NImy_GsO39rS-30" value="" style="html=1;verticalAlign=bottom;startArrow=none;endArrow=none;dashed=1;rounded=0;" edge="1" parent="0gLnGoI6NImy_GsO39rS-27" source="0gLnGoI6NImy_GsO39rS-29" target="0gLnGoI6NImy_GsO39rS-28">
          <mxGeometry relative="1" as="geometry" />
        </mxCell>
        <mxCell id="0gLnGoI6NImy_GsO39rS-31" value="" style="html=1;verticalAlign=bottom;startArrow=none;endArrow=none;dashed=1;rounded=0;" edge="1" parent="0gLnGoI6NImy_GsO39rS-27" target="0gLnGoI6NImy_GsO39rS-29">
          <mxGeometry relative="1" as="geometry">
            <mxPoint x="80" y="150" as="sourcePoint" />
          </mxGeometry>
        </mxCell>
        <mxCell id="0gLnGoI6NImy_GsO39rS-32" value="" style="html=1;verticalAlign=bottom;startArrow=none;endArrow=open;endFill=0;rounded=0;" edge="1" parent="0gLnGoI6NImy_GsO39rS-27">
          <mxGeometry relative="1" as="geometry">
            <mxPoint y="60" as="sourcePoint" />
            <mxPoint x="75" y="60" as="targetPoint" />
          </mxGeometry>
        </mxCell>
        <mxCell id="0gLnGoI6NImy_GsO39rS-34" value="Lifeline1" style="shape=umlLifeline;perimeter=lifelinePerimeter;whiteSpace=wrap;html=1;container=1;dropTarget=0;collapsible=0;recursiveResize=0;outlineConnect=0;portConstraint=eastwest;newEdgeStyle={&quot;edgeStyle&quot;:&quot;elbowEdgeStyle&quot;,&quot;elbow&quot;:&quot;vertical&quot;,&quot;curved&quot;:0,&quot;rounded&quot;:0};" vertex="1" parent="1">
          <mxGeometry x="490" y="320" width="100" height="300" as="geometry" />
        </mxCell>
        <mxCell id="0gLnGoI6NImy_GsO39rS-35" value="Lifeline2" style="shape=umlLifeline;perimeter=lifelinePerimeter;whiteSpace=wrap;html=1;container=1;dropTarget=0;collapsible=0;recursiveResize=0;outlineConnect=0;portConstraint=eastwest;newEdgeStyle={&quot;edgeStyle&quot;:&quot;elbowEdgeStyle&quot;,&quot;elbow&quot;:&quot;vertical&quot;,&quot;curved&quot;:0,&quot;rounded&quot;:0};" vertex="1" parent="1">
          <mxGeometry x="610" y="320" width="100" height="300" as="geometry" />
        </mxCell>
        <mxCell id="0gLnGoI6NImy_GsO39rS-36" value="Lifeline2" style="shape=umlLifeline;perimeter=lifelinePerimeter;whiteSpace=wrap;html=1;container=1;dropTarget=0;collapsible=0;recursiveResize=0;outlineConnect=0;portConstraint=eastwest;newEdgeStyle={&quot;edgeStyle&quot;:&quot;elbowEdgeStyle&quot;,&quot;elbow&quot;:&quot;vertical&quot;,&quot;curved&quot;:0,&quot;rounded&quot;:0};" vertex="1" parent="1">
          <mxGeometry x="910" y="170" width="100" height="300" as="geometry" />
        </mxCell>
        <mxCell id="0gLnGoI6NImy_GsO39rS-37" value="" style="html=1;points=[[0,0,0,0,5],[0,1,0,0,-5],[1,0,0,0,5],[1,1,0,0,-5]];perimeter=orthogonalPerimeter;outlineConnect=0;targetShapes=umlLifeline;portConstraint=eastwest;newEdgeStyle={&quot;curved&quot;:0,&quot;rounded&quot;:0};fillColor=#808080;" vertex="1" parent="0gLnGoI6NImy_GsO39rS-36">
          <mxGeometry x="45" y="90" width="10" height="120" as="geometry" />
        </mxCell>
        <mxCell id="0gLnGoI6NImy_GsO39rS-38" value="Lifeline1" style="shape=umlLifeline;perimeter=lifelinePerimeter;whiteSpace=wrap;html=1;container=1;dropTarget=0;collapsible=0;recursiveResize=0;outlineConnect=0;portConstraint=eastwest;newEdgeStyle={&quot;edgeStyle&quot;:&quot;elbowEdgeStyle&quot;,&quot;elbow&quot;:&quot;vertical&quot;,&quot;curved&quot;:0,&quot;rounded&quot;:0};size=40;points=[];" vertex="1" parent="1">
          <mxGeometry x="750" y="170" width="100" height="300" as="geometry" />
        </mxCell>
        <mxCell id="0gLnGoI6NImy_GsO39rS-39" value="" style="html=1;points=[[0,0,0,0,5],[0,1,0,0,-5],[1,0,0,0,5],[1,1,0,0,-5]];perimeter=orthogonalPerimeter;outlineConnect=0;targetShapes=umlLifeline;portConstraint=eastwest;newEdgeStyle={&quot;curved&quot;:0,&quot;rounded&quot;:0};" vertex="1" parent="0gLnGoI6NImy_GsO39rS-38">
          <mxGeometry x="45" y="90" width="10" height="50" as="geometry" />
        </mxCell>
        <mxCell id="0gLnGoI6NImy_GsO39rS-46" value="" style="html=1;points=[[0,0,0,0,5],[0,1,0,0,-5],[1,0,0,0,5],[1,1,0,0,-5]];perimeter=orthogonalPerimeter;outlineConnect=0;targetShapes=umlLifeline;portConstraint=eastwest;newEdgeStyle={&quot;curved&quot;:0,&quot;rounded&quot;:0};fillColor=#808080;" vertex="1" parent="0gLnGoI6NImy_GsO39rS-38">
          <mxGeometry x="45" y="150" width="15" height="120" as="geometry" />
        </mxCell>
        <mxCell id="0gLnGoI6NImy_GsO39rS-40" value="" style="edgeStyle=none;rounded=0;orthogonalLoop=1;jettySize=auto;html=1;curved=0;" edge="1" parent="1" source="0gLnGoI6NImy_GsO39rS-39" target="0gLnGoI6NImy_GsO39rS-37">
          <mxGeometry relative="1" as="geometry" />
        </mxCell>
        <mxCell id="0gLnGoI6NImy_GsO39rS-47" value="" style="edgeStyle=none;rounded=0;orthogonalLoop=1;jettySize=auto;html=1;curved=0;" edge="1" parent="1" source="0gLnGoI6NImy_GsO39rS-37" target="0gLnGoI6NImy_GsO39rS-46">
          <mxGeometry relative="1" as="geometry" />
        </mxCell>
        <mxCell id="0gLnGoI6NImy_GsO39rS-49" value="" style="edgeStyle=none;rounded=0;orthogonalLoop=1;jettySize=auto;html=1;curved=0;" edge="1" parent="1" source="0gLnGoI6NImy_GsO39rS-46" target="0gLnGoI6NImy_GsO39rS-48">
          <mxGeometry relative="1" as="geometry" />
        </mxCell>
        <mxCell id="0gLnGoI6NImy_GsO39rS-48" value="" style="html=1;points=[[0,0,0,0,5],[0,1,0,0,-5],[1,0,0,0,5],[1,1,0,0,-5]];perimeter=orthogonalPerimeter;outlineConnect=0;targetShapes=umlLifeline;portConstraint=eastwest;newEdgeStyle={&quot;curved&quot;:0,&quot;rounded&quot;:0};fillColor=#808080;" vertex="1" parent="1">
          <mxGeometry x="952.5" y="400" width="15" height="120" as="geometry" />
        </mxCell>
      </root>
    </mxGraphModel>
  </diagram>
</mxfile>
